HIERARCHY
ROOT Junyuan_V1:Solving:Hips
{
	OFFSET 0.000000 0.000000 0.000000
	CHANNELS 6 Xposition Yposition Zposition Xrotation Yrotation Zrotation
	JOINT Junyuan_V1:Solving:Spine
	{
		OFFSET 0.000000 -11.384845 2.506330
		CHANNELS 6 Xposition Yposition Zposition Xrotation Yrotation Zrotation
		JOINT Junyuan_V1:Solving:Spine1
		{
			OFFSET 0.000000 -9.451137 1.666492
			CHANNELS 6 Xposition Yposition Zposition Xrotation Yrotation Zrotation
			JOINT Junyuan_V1:Solving:Spine2
			{
				OFFSET 0.000000 -9.560415 0.836431
				CHANNELS 6 Xposition Yposition Zposition Xrotation Yrotation Zrotation
				JOINT Junyuan_V1:Solving:Spine3
				{
					OFFSET 0.000000 -9.596935 0.000000
					CHANNELS 6 Xposition Yposition Zposition Xrotation Yrotation Zrotation
					JOINT Junyuan_V1:Solving:Neck
					{
						OFFSET 0.000000 -12.338917 -1.233889
						CHANNELS 6 Xposition Yposition Zposition Xrotation Yrotation Zrotation
						JOINT Junyuan_V1:Solving:Neck1
						{
							OFFSET 0.000000 -7.011459 -0.613421
							CHANNELS 6 Xposition Yposition Zposition Xrotation Yrotation Zrotation
							JOINT Junyuan_V1:Solving:Head
							{
								OFFSET 0.000000 -6.931316 -1.222178
								CHANNELS 6 Xposition Yposition Zposition Xrotation Yrotation Zrotation
								JOINT Junyuan_V1:Solving:HeadEnd
								{
									OFFSET 0.000000 -9.728081 0.000002
									CHANNELS 6 Xposition Yposition Zposition Xrotation Yrotation Zrotation
									End Site
									{
										OFFSET 0.000000 -9.728081 0.000002
									}
								}
							}
						}
					}
					JOINT Junyuan_V1:Solving:RightShoulder
					{
						OFFSET 0.000000 -8.813511 -5.370063
						CHANNELS 6 Xposition Yposition Zposition Xrotation Yrotation Zrotation
						JOINT Junyuan_V1:Solving:RightArm
						{
							OFFSET -18.258251 -0.000008 0.000000
							CHANNELS 6 Xposition Yposition Zposition Xrotation Yrotation Zrotation
							JOINT Junyuan_V1:Solving:RightForeArm
							{
								OFFSET -29.201408 -0.000008 0.000000
								CHANNELS 6 Xposition Yposition Zposition Xrotation Yrotation Zrotation
								JOINT Junyuan_V1:Solving:RightHand
								{
									OFFSET -21.396938 -0.000008 0.000000
									CHANNELS 6 Xposition Yposition Zposition Xrotation Yrotation Zrotation
									JOINT Junyuan_V1:Solving:RightHandThumb1
									{
										OFFSET -3.324738 2.789463 -2.472237
										CHANNELS 6 Xposition Yposition Zposition Xrotation Yrotation Zrotation
										End Site
										{
											OFFSET -4.877937 0.000000 -4.923042
										}
									}
									JOINT Junyuan_V1:Solving:RightHandMiddle1
									{
										OFFSET -8.865959 -0.000004 0.056833
										CHANNELS 6 Xposition Yposition Zposition Xrotation Yrotation Zrotation
										End Site
										{
											OFFSET -6.930412 -0.000004 0.000000
										}
									}
								}
							}
						}
					}
					JOINT Junyuan_V1:Solving:LeftShoulder
					{
						OFFSET 0.000000 -8.813511 -5.370063
						CHANNELS 6 Xposition Yposition Zposition Xrotation Yrotation Zrotation
						JOINT Junyuan_V1:Solving:LeftArm
						{
							OFFSET 18.258251 -0.000008 0.000000
							CHANNELS 6 Xposition Yposition Zposition Xrotation Yrotation Zrotation
							JOINT Junyuan_V1:Solving:LeftForeArm
							{
								OFFSET 29.201408 -0.000008 0.000000
								CHANNELS 6 Xposition Yposition Zposition Xrotation Yrotation Zrotation
								JOINT Junyuan_V1:Solving:LeftHand
								{
									OFFSET 21.396938 -0.000008 0.000000
									CHANNELS 6 Xposition Yposition Zposition Xrotation Yrotation Zrotation
									JOINT Junyuan_V1:Solving:LeftHandThumb1
									{
										OFFSET 3.324738 2.789463 -2.472237
										CHANNELS 6 Xposition Yposition Zposition Xrotation Yrotation Zrotation
										End Site
										{
											OFFSET 4.877937 0.000000 -4.923042
										}
									}
									JOINT Junyuan_V1:Solving:LeftHandMiddle1
									{
										OFFSET 8.865959 -0.000004 0.056833
										CHANNELS 6 Xposition Yposition Zposition Xrotation Yrotation Zrotation
										End Site
										{
											OFFSET 6.930412 -0.000004 0.000000
										}
									}
								}
							}
						}
					}
				}
			}
		}
	}
	JOINT Junyuan_V1:Solving:RightUpLeg
	{
		OFFSET -10.758358 0.000000 0.000000
		CHANNELS 6 Xposition Yposition Zposition Xrotation Yrotation Zrotation
		JOINT Junyuan_V1:Solving:RightLeg
		{
			OFFSET 0.000000 42.048927 -0.000006
			CHANNELS 6 Xposition Yposition Zposition Xrotation Yrotation Zrotation
			JOINT Junyuan_V1:Solving:RightFoot
			{
				OFFSET 0.000000 37.321884 -0.000006
				CHANNELS 6 Xposition Yposition Zposition Xrotation Yrotation Zrotation
				JOINT Junyuan_V1:Solving:RightForeFoot
				{
					OFFSET 0.000000 3.476204 -0.000000
					CHANNELS 6 Xposition Yposition Zposition Xrotation Yrotation Zrotation
					JOINT Junyuan_V1:Solving:RightToeBase
					{
						OFFSET 0.000000 0.000000 -13.613925
						CHANNELS 6 Xposition Yposition Zposition Xrotation Yrotation Zrotation
						JOINT Junyuan_V1:Solving:RightToeBaseEnd
						{
							OFFSET 0.000000 0.000000 -4.229021
							CHANNELS 6 Xposition Yposition Zposition Xrotation Yrotation Zrotation
							End Site
							{
								OFFSET 0.000000 -4.229019 0.000000
							}
						}
					}
				}
			}
		}
	}
	JOINT Junyuan_V1:Solving:LeftUpLeg
	{
		OFFSET 10.758358 0.000000 0.000000
		CHANNELS 6 Xposition Yposition Zposition Xrotation Yrotation Zrotation
		JOINT Junyuan_V1:Solving:LeftLeg
		{
			OFFSET 0.000000 42.048927 -0.000006
			CHANNELS 6 Xposition Yposition Zposition Xrotation Yrotation Zrotation
			JOINT Junyuan_V1:Solving:LeftFoot
			{
				OFFSET 0.000000 37.321884 -0.000006
				CHANNELS 6 Xposition Yposition Zposition Xrotation Yrotation Zrotation
				JOINT Junyuan_V1:Solving:LeftForeFoot
				{
					OFFSET 0.000000 3.476204 -0.000000
					CHANNELS 6 Xposition Yposition Zposition Xrotation Yrotation Zrotation
					JOINT Junyuan_V1:Solving:LeftToeBase
					{
						OFFSET 0.000000 0.000000 -13.613925
						CHANNELS 6 Xposition Yposition Zposition Xrotation Yrotation Zrotation
						JOINT Junyuan_V1:Solving:LeftToeBaseEnd
						{
							OFFSET 0.000000 0.000000 -4.216879
							CHANNELS 6 Xposition Yposition Zposition Xrotation Yrotation Zrotation
							End Site
							{
								OFFSET 0.000000 -4.216881 0.000000
							}
						}
					}
				}
			}
		}
	}
}
MOTION
Frames: 4
Frame Time: 0.041667
-7.891014 4.395590 -88.756706 -87.368071 -1.550310 -177.411432 -0.000001 -11.384856 2.506319 10.353095 -0.120228 -1.364014 0.000001 -9.451111 1.666492 -1.333449 0.023673 -0.104063 0.000002 -9.560400 0.836431 -2.581187 -0.667106 -0.075893 -0.000003 -9.596944 0.000005 -1.216553 -0.697935 0.289836 -0.000001 -12.338917 -1.233889 -8.308408 -0.498223 1.832931 0.000002 -7.011451 -0.613421 2.459778 -0.632051 0.452024 0.000000 -6.931351 -1.222182 12.103739 -0.019280 0.878723 -0.000002 -9.728088 0.000007 -0.000001 -0.000000 -0.000000 -0.000002 -8.813519 -5.370061 0.000001 18.467599 5.718282 -18.258238 -0.000036 0.000011 4.016404 -42.935611 -78.224750 -29.201384 0.000004 0.000005 9.835356 -22.416522 3.782471 -21.396967 0.000004 -0.000005 -0.393235 -0.956656 -22.345114 -3.324743 2.789447 -2.472239 -0.000006 0.000005 0.000003 -8.865958 0.000002 0.056834 -0.000006 -0.000000 0.000001 -0.000002 -8.813526 -5.370061 -179.999978 28.316827 2.902574 18.258249 0.000015 -0.000003 -115.916383 83.607587 7.227912 29.201399 0.000005 0.000003 -10.336924 19.945962 3.560450 21.396936 -0.000017 -0.000001 0.050071 -0.812991 3.525663 3.324754 2.789459 -2.472233 -0.000006 -0.000010 0.000001 8.865967 0.000010 0.056835 -0.000001 -0.000001 -0.000000 -10.758359 -0.000012 -0.000009 7.015537 2.650958 -5.055857 -0.000000 42.048920 -0.000008 -1.237481 -0.000001 0.000000 -0.000001 37.321877 -0.000009 10.923732 8.908330 6.791409 -0.000000 3.476204 -0.000000 -0.000000 0.000000 0.000000 0.000001 0.000005 -13.613925 5.502161 0.000001 -0.000000 -0.000000 0.000001 -4.229022 0.000003 0.000002 -0.000001 10.758361 -0.000013 -0.000009 6.999836 -6.487954 -0.941652 0.000000 42.048943 -0.000006 -0.603851 0.000000 -0.000000 -0.000003 37.321899 -0.000005 3.029383 -14.895041 -2.556405 0.000002 3.476196 -0.000003 0.000001 -0.000003 0.000000 0.000002 0.000007 -13.613923 7.941595 -0.000001 -0.000001 0.000002 0.000001 -4.216878 0.000004 -0.000001 0.000001 
-7.859880 4.396732 -88.757469 -87.392243 -1.609047 -177.416254 -0.000000 -11.384853 2.506334 10.345065 -0.122575 -1.377469 0.000001 -9.451155 1.666497 -1.331698 0.023832 -0.102012 -0.000002 -9.560383 0.836428 -2.581833 -0.658047 -0.079192 -0.000000 -9.596915 0.000005 -1.198775 -0.703302 0.312044 0.000000 -12.338897 -1.233889 -8.328485 -0.500647 1.825862 0.000002 -7.011433 -0.613421 2.460893 -0.647412 0.458633 -0.000000 -6.931327 -1.222177 12.089426 -0.019836 0.870454 0.000003 -9.728081 -0.000002 0.000001 0.000000 0.000000 -0.000000 -8.813496 -5.370063 0.000006 18.478496 5.840752 -18.258244 0.000004 0.000008 4.189490 -43.509811 -78.033238 -29.201380 -0.000004 0.000002 10.523182 -22.905306 4.135326 -21.396936 0.000001 0.000001 -0.171866 -0.430005 -21.782730 -3.324764 2.789452 -2.472234 -0.000006 0.000003 -0.000004 -8.865974 0.000011 0.056835 -0.000001 -0.000000 -0.000000 -0.000002 -8.813507 -5.370063 -179.999978 28.308202 2.909552 18.258247 -0.000008 -0.000011 -111.302072 83.477910 2.506387 29.201410 0.000005 0.000010 -10.864462 20.095649 3.772840 21.396914 -0.000008 -0.000006 0.060375 -0.876336 3.942073 3.324728 2.789459 -2.472233 -0.000007 -0.000010 0.000006 8.865960 0.000013 0.056835 -0.000004 -0.000002 0.000001 -10.758361 0.000005 0.000004 6.980526 2.637572 -5.067279 0.000002 42.048927 -0.000005 -1.228132 0.000000 0.000000 -0.000001 37.321869 -0.000006 10.922243 8.870067 6.817655 -0.000001 3.476212 -0.000002 0.000002 -0.000000 -0.000000 0.000002 0.000013 -13.613923 5.485228 -0.000003 -0.000000 -0.000000 -0.000007 -4.229024 0.000001 0.000001 -0.000001 10.758359 0.000010 0.000004 6.926861 -6.872611 -0.963335 -0.000004 42.048916 -0.000010 -0.498641 -0.000000 -0.000000 0.000003 37.321880 -0.000004 2.969642 -14.591511 -2.498219 -0.000003 3.476204 0.000000 0.000002 0.000001 0.000000 -0.000002 0.000008 -13.613922 7.886329 0.000002 0.000001 -0.000004 -0.000007 -4.216877 0.000002 0.000001 0.000000 
-7.823781 4.399445 -88.758423 -87.422549 -1.669446 -177.418562 -0.000001 -11.384859 2.506334 10.331935 -0.126145 -1.393046 -0.000001 -9.451138 1.666494 -1.346084 0.026094 -0.109819 0.000001 -9.560412 0.836432 -2.562807 -0.659552 -0.072874 -0.000000 -9.596923 0.000002 -1.178787 -0.707725 0.324892 -0.000001 -12.338957 -1.233875 -8.346702 -0.501104 1.822220 0.000002 -7.011447 -0.613421 2.449544 -0.675266 0.460631 0.000002 -6.931303 -1.222173 12.095140 -0.023124 0.890625 0.000000 -9.728065 0.000006 -0.000001 -0.000000 0.000000 -0.000001 -8.813503 -5.370052 0.000001 18.494132 5.983259 -18.258244 -0.000013 0.000005 4.283967 -43.992063 -77.917268 -29.201384 0.000000 0.000004 11.350131 -23.314518 4.542416 -21.396961 -0.000007 0.000003 -0.001050 -0.002630 -21.330828 -3.324749 2.789446 -2.472234 -0.000000 0.000009 -0.000004 -8.865990 -0.000005 0.056834 -0.000001 0.000002 0.000000 -0.000001 -8.813511 -5.370052 -179.999978 28.276548 2.926490 18.258244 0.000028 0.000001 -107.282218 83.325439 -1.579781 29.201399 -0.000010 0.000004 -11.284648 20.257982 3.952330 21.396954 -0.000015 -0.000002 0.068456 -0.938121 4.174331 3.324730 2.789453 -2.472242 0.000002 0.000007 -0.000000 8.865958 -0.000004 0.056828 -0.000005 -0.000001 -0.000001 -10.758356 -0.000026 0.000005 6.935419 2.609826 -5.084501 0.000000 42.048943 -0.000005 -1.214459 0.000000 0.000001 0.000000 37.321907 -0.000002 10.923259 8.845687 6.844367 -0.000001 3.476204 -0.000002 -0.000000 -0.000000 0.000000 -0.000001 0.000004 -13.613927 5.479766 -0.000002 0.000000 -0.000002 0.000001 -4.229025 0.000004 -0.000000 -0.000001 10.758349 -0.000000 0.000006 6.843020 -7.212167 -0.990337 0.000000 42.048927 -0.000007 -0.389196 0.000001 -0.000000 0.000000 37.321892 -0.000005 2.911176 -14.325241 -2.455719 -0.000002 3.476212 -0.000002 0.000000 -0.000005 0.000000 0.000004 0.000003 -13.613926 7.862968 -0.000004 0.000002 0.000005 -0.000000 -4.216878 -0.000001 -0.000004 0.000001 
-7.789496 4.400427 -88.758324 -87.450416 -1.725788 -177.438575 0.000001 -11.384850 2.506340 10.322088 -0.125098 -1.396941 -0.000000 -9.451130 1.666492 -1.344870 0.025512 -0.106332 0.000001 -9.560427 0.836431 -2.563900 -0.647918 -0.074310 -0.000001 -9.596945 0.000004 -1.165096 -0.709197 0.350169 -0.000002 -12.338916 -1.233890 -8.367479 -0.514061 1.831601 0.000001 -7.011469 -0.613424 2.457017 -0.709844 0.439231 -0.000001 -6.931323 -1.222174 12.097818 -0.026256 0.902128 -0.000003 -9.728104 -0.000003 0.000001 0.000000 -0.000000 0.000000 -8.813496 -5.370064 0.000004 18.504352 6.118494 -18.258247 -0.000009 0.000006 4.356646 -44.416317 -77.858125 -29.201399 -0.000005 0.000003 12.115663 -23.671764 4.926170 -21.396929 -0.000002 -0.000000 0.144801 0.380094 -20.860265 -3.324748 2.789453 -2.472234 -0.000002 0.000010 -0.000003 -8.865964 0.000001 0.056835 -0.000002 0.000003 0.000003 -0.000001 -8.813507 -5.370062 -179.999978 28.271645 2.990216 18.258247 -0.000006 -0.000009 -103.670606 83.198077 -5.222619 29.201385 -0.000009 0.000002 -11.643648 20.416935 4.111672 21.396946 -0.000008 0.000004 0.076475 -1.037049 4.218454 3.324733 2.789448 -2.472239 0.000000 -0.000003 0.000004 8.865961 -0.000003 0.056831 0.000009 -0.000001 0.000002 -10.758359 -0.000005 0.000007 6.897489 2.565593 -5.078401 0.000000 42.048920 -0.000005 -1.204251 0.000000 -0.000000 -0.000001 37.321884 -0.000003 10.918903 8.895417 6.754210 0.000000 3.476204 0.000000 0.000001 0.000000 -0.000000 0.000001 0.000000 -13.613925 5.369350 -0.000003 0.000000 -0.000000 0.000000 -4.229023 0.000000 0.000000 -0.000000 10.758362 -0.000003 0.000008 6.792195 -7.361104 -0.993678 -0.000003 42.048939 -0.000005 -0.335610 -0.000000 -0.000000 -0.000000 37.321911 -0.000006 2.904267 -14.248382 -2.418276 -0.000001 3.476196 0.000004 0.000002 -0.000001 0.000000 -0.000001 0.000014 -13.613921 7.864993 -0.000004 -0.000000 0.000005 0.000010 -4.216876 0.000007 -0.000003 -0.000000 
